<?xml version="1.0" encoding="UTF-8"?> <svg xmlns="http://www.w3.org/2000/svg" xmlns:xlink="http://www.w3.org/1999/xlink" width="120px" height="119px" viewBox="0 0 120 119"><!-- Generator: Sketch 53.2 (72643) - https://sketchapp.com --><title>ic-budgeting that works</title><desc>Created with Sketch.</desc><defs><polygon id="path-1" points="0 0.513813459 119.479149 0.513813459 119.479149 118.378402 0 118.378402"></polygon></defs><g id="Goodbudget-v1" stroke="none" stroke-width="1" fill="none" fill-rule="evenodd"><g id="Home-desktop-v1a" transform="translate(-289.000000, -953.000000)"><g id="ic-budgeting-that-works" transform="translate(289.000000, 953.000000)"><g id="Group-3" transform="translate(0.000000, 0.115860)"><mask id="mask-2" fill="white"><use xlink:href="#path-1"></use></mask><g id="Clip-2"></g><path d="M119.479404,59.4460134 C119.479404,91.9931995 92.7328085,118.378402 59.7398298,118.378402 C26.7462128,118.378402 -0.000382978723,91.9931995 -0.000382978723,59.4460134 C-0.000382978723,26.8988272 26.7462128,0.513624557 59.7398298,0.513624557 C92.7328085,0.513624557 119.479404,26.8988272 119.479404,59.4460134" id="Fill-1" fill="#70DB99" mask="url(#mask-2)"></path></g><polygon id="Fill-4" fill="#E5E5E5" points="29.2027021 54.4178198 54.1167447 25.2765368 87.2878085 40.5650059 63.6707872 60.7145533 29.841 55.6771665"></polygon><polygon id="Fill-5" fill="#FFFFFF" points="28.9237021 54.3716647 39.3694468 93.1652105 91.5981702 82.2548603 87.2973191 40.4300669 63.3330638 59.9197166"></polygon><polygon id="Fill-6" fill="#74DA9B" points="61.4660426 45.3029201 48.5628511 42.2723022 44.2613617 56.8196458 44.9475319 56.9550256 56.6902979 58.8484534"></polygon><polygon id="Fill-7" fill="#3EA264" points="72.5502128 48.8718457 60.5948936 39.8788508 49.9902128 57.7678709 62.4587234 59.7784179"></polygon><polygon id="Fill-8" fill="#74DA9B" points="78.2004255 47.828351 70.0538298 41.8244156 59.8876596 59.3639669 63.3331915 59.9193388"></polygon></g></g></g></svg> 