<?xml version="1.0" encoding="UTF-8"?> <svg xmlns="http://www.w3.org/2000/svg" xmlns:xlink="http://www.w3.org/1999/xlink" width="120px" height="120px" viewBox="0 0 120 120"><!-- Generator: Sketch 53.2 (72643) - https://sketchapp.com --><title>ic-save-for-big-expenses</title><desc>Created with Sketch.</desc><defs><polygon id="path-1" points="0 0.520851064 119.479149 0.520851064 119.479149 119.999809 0 119.999809"></polygon></defs><g id="Goodbudget-v1" stroke="none" stroke-width="1" fill="none" fill-rule="evenodd"><g id="Home-desktop-v1a" transform="translate(-662.000000, -953.000000)"><g id="ic-save-for-big-expenses" transform="translate(662.000000, 953.000000)"><g id="Group-3"><mask id="mask-2" fill="white"><use xlink:href="#path-1"></use></mask><g id="Clip-2"></g><path d="M119.479468,60.260234 C119.479468,93.2532128 92.7335106,119.999809 59.7398936,119.999809 C26.7462766,119.999809 -0.000319148936,93.2532128 -0.000319148936,60.260234 C-0.000319148936,27.2672553 26.7462766,0.520659574 59.7398936,0.520659574 C92.7335106,0.520659574 119.479468,27.2672553 119.479468,60.260234" id="Fill-1" fill="#70DB99" mask="url(#mask-2)"></path></g><g id="Group-20" transform="translate(15.272727, 26.181818)"><path d="M24.9879041,24.6320071 C25.6230224,23.996526 30.7039689,20.8191209 29.4337323,17.0062348 C28.1634956,13.1933486 23.0825492,5.56757635 23.0825492,5.56757635 C23.0825492,5.56757635 19.2718394,1.7546902 17.3664844,2.39017123 C15.4611295,3.02565225 17.3664844,8.74498147 17.3664844,8.74498147 L17.3664844,14.4643107 L18.636721,18.9126778 C18.636721,18.9126778 19.9069577,22.725564 21.8123126,23.996526 C23.7176675,25.2674881 24.9879041,24.6320071 24.9879041,24.6320071" id="Fill-4" fill="#DD6D94"></path><path d="M21.4947534,51.0044695 L22.1298717,63.078609 C21.771665,62.9000388 22.3826488,62.8898711 25.3054633,63.71409 C26.528066,64.0591562 29.7512914,63.71409 29.7512914,63.71409 L29.7512914,49.0980265 L21.4947534,51.0044695 Z" id="Fill-6" fill="#DD6D94"></path><path d="M51.9804321,51.0044695 L52.6155504,63.078609 C52.6155504,63.078609 54.5209054,63.71409 55.791142,63.71409 L60.2369701,63.71409 L60.2369701,49.0980265 L51.9804321,51.0044695 Z" id="Fill-8" fill="#DD6D94"></path><path d="M7.84898257,22.0863336 C7.84898257,22.0863336 11.9677248,24.9498111 14.508198,23.043368 C17.0486712,21.136925 17.6837895,18.5950009 20.2242628,16.6885578 C22.764736,14.7821147 24.0349726,14.1466337 27.8456824,12.8756717 C31.6563923,11.6047096 60.8718344,10.9692286 64.6825442,12.8756717 C68.493254,14.7821147 74.8444371,19.8659629 76.749792,24.9498111 C78.6551469,30.0336593 79.9253836,40.2013557 78.0200286,44.0142418 C76.1146737,47.827128 72.9390822,52.2754951 70.398609,53.5464572 C67.8581357,54.8174192 66.5878991,54.8174192 66.5878991,54.8174192 L67.2230174,63.7141536 C67.2230174,63.7141536 64.6825442,64.9851156 62.142071,64.9851156 C59.6015978,64.9851156 58.9664795,63.0786726 58.9664795,63.0786726 L58.9664795,55.4529003 C58.9664795,55.4529003 50.0748232,55.4529003 46.2641133,56.0883813 C42.4534035,56.7238623 36.1022204,56.0883813 36.1022204,56.0883813 L36.1022204,63.7141536 C36.1022204,63.7141536 36.1022204,65.6205966 33.5617472,64.9851156 C31.021274,64.3496346 29.1159191,65.6205966 28.4808007,63.0786726 C27.8456824,60.5367485 28.4808007,56.0883813 28.4808007,56.0883813 C28.4808007,56.0883813 25.3052092,56.7238623 21.4944994,54.8174192 C17.6837895,52.9109762 13.2379614,45.9206849 10.6974882,43.3787608 C8.15701494,40.8368367 5.61654172,37.0239506 3.7111868,35.7529885 C1.80583188,34.4820265 2.44095019,33.2110644 2.44095019,33.2110644 L7.84898257,22.0863336 Z" id="Fill-10" fill="#FCB1CE"></path><path d="M6.25191407,21.7723425 C6.25191407,21.7723425 2.44120423,23.6787855 1.80608593,26.8561906 C1.17096762,30.0335958 -0.734387298,33.2110009 1.17096762,34.4819629 C1.69938605,34.8346549 4.98167746,35.117444 6.88703238,30.6690768 C8.7923873,26.2207096 10.0626239,24.3142665 6.88703238,21.7723425" id="Fill-12" fill="#DD6D94"></path><path d="M33.8795604,22.725564 C34.5146787,22.090083 39.5956252,18.9126778 38.3253885,15.0997917 C37.0551519,11.2869056 31.9742055,3.66113327 31.9742055,3.66113327 C31.9742055,3.66113327 28.1634956,-0.151752868 26.2581407,0.483728155 C24.3527858,1.11920918 26.2581407,6.83853839 26.2581407,6.83853839 L26.2581407,12.5578676 L27.5283773,17.0062348 C27.5283773,17.0062348 28.7986139,20.8191209 30.7039689,22.090083 C32.6093238,23.361045 33.8795604,22.725564 33.8795604,22.725564" id="Fill-14" fill="#DE6B92"></path><path d="M42.7712167,17.0062348 L57.3789377,17.0062348" id="Stroke-16" stroke="#262626" stroke-width="7.2" stroke-linecap="round" stroke-linejoin="round"></path><path d="M92.2254658,28.1894934 C92.2254658,28.1894934 86.5887908,24.6981606 84.0635604,25.3933769 C81.5389651,26.0879576 79.5396127,28.9177546 81.4741831,30.1435975 C83.4087534,31.3694404 87.5065367,27.731947 87.5065367,27.731947 C87.5065367,27.731947 89.3528257,25.1455393 88.0527385,23.9050803 C86.7532864,22.6639859 84.46432,19.9473045 79.9956276,22.4479223 C77.0474085,24.0982665 74.8518045,26.3167308 74.8518045,26.3167308" id="Stroke-18" stroke="#FEA6C4" stroke-width="4.8" stroke-linecap="round" stroke-linejoin="round"></path></g></g></g></g></svg> 