<?xml version="1.0" encoding="UTF-8"?> <svg xmlns="http://www.w3.org/2000/svg" xmlns:xlink="http://www.w3.org/1999/xlink" width="120px" height="120px" viewBox="0 0 120 120"><!-- Generator: Sketch 53.2 (72643) - https://sketchapp.com --><title>ic-get-rid-debt</title><desc>Created with Sketch.</desc><defs><polygon id="path-1" points="0 0 119.99988 0 119.99988 120 0 120"></polygon><polygon id="path-3" points="0 120 120 120 120 0 0 0"></polygon></defs><g id="Goodbudget-v1" stroke="none" stroke-width="1" fill="none" fill-rule="evenodd"><g id="Home-desktop-v1a" transform="translate(-834.000000, -953.000000)"><g id="ic-get-rid-debt" transform="translate(834.000000, 953.000000)"><g id="Group-3"><mask id="mask-2" fill="white"><use xlink:href="#path-1"></use></mask><g id="Clip-2"></g><path d="M119.99988,60 C119.99988,93.13704 93.13692,120 59.99988,120 C26.86284,120 -0.00012,93.13704 -0.00012,60 C-0.00012,26.86296 26.86284,0 59.99988,0 C93.13692,0 119.99988,26.86296 119.99988,60" id="Fill-1" fill="#70DB99" mask="url(#mask-2)"></path></g><path d="M60.966216,79.880736 L53.975496,19.809456 C53.836056,18.683616 56.570136,15.927936 58.217016,19.448736 C59.360136,23.812416 68.957016,66.693456 68.957016,66.693456 C68.957016,66.693456 70.576536,71.236896 67.442376,73.001856 C64.308216,74.765856 66.227496,80.305776 66.227496,80.305776 L60.966216,79.880736 Z" id="Fill-4" fill="#D9D9D9"></path><path d="M61.797312,64.931376 C62.442432,65.943696 63.788592,66.241776 64.801872,65.596416 C65.813712,64.950096 66.110592,63.606096 65.464992,62.592576 C64.819632,61.580016 63.475632,61.280976 62.462352,61.927536 C61.449552,62.574336 61.151712,63.918096 61.797312,64.931376" id="Fill-6" fill="#F7F7F7"></path><path d="M59.324424,90.183624 C63.091704,89.742984 66.521064,92.595864 66.984504,96.554184 C67.446744,100.512984 64.767624,104.080584 60.999864,104.520504 C57.234024,104.960664 53.804904,102.108504 53.340984,98.149464 C52.879224,94.190664 55.557144,90.624264 59.324424,90.183624 M60.209544,79.562424 C59.128824,82.205064 56.308104,86.574504 54.199224,88.824264 C52.089144,91.074504 48.835224,96.617784 52.761384,103.012824 C56.688264,109.408584 64.172904,107.427384 66.991224,106.761864 C69.809544,106.095864 69.813624,105.037224 69.813624,105.037224 L70.108584,102.662664 L69.539544,98.575944 L65.879304,79.637544 C65.879304,79.637544 60.403464,79.088664 60.209544,79.562424" id="Fill-8" fill="#8B4DFE"></path><path d="M57.282792,48.226512 L53.975592,19.809552 C53.836152,18.683472 56.569992,15.927792 58.217112,19.448592 C59.359992,23.812512 68.957112,66.693552 68.957112,66.693552 C68.957112,66.693552 70.352232,70.608912 68.044392,72.582672 L57.282792,48.226512 Z" id="Fill-10" fill="#D9D9D9"></path><path d="M64.920816,65.513544 C65.835936,64.841304 66.084816,63.564984 65.465136,62.592744 C64.968816,61.814424 64.058496,61.458264 63.204096,61.627944 L64.920816,65.513544 Z" id="Fill-12" fill="#F7F7F7"></path><path d="M33.823008,27.732528 C33.606528,27.732528 33.428448,27.909888 33.428448,28.126608 C33.428448,28.343808 33.606528,28.521168 33.823008,28.521168 C34.040208,28.521168 34.218048,28.343808 34.218048,28.126608 C34.218048,27.909888 34.040208,27.732528 33.823008,27.732528" id="Fill-14" fill="#00ADEE"></path><path d="M86.851992,23.15028 L68.746872,23.15028 L51.119112,23.15028 L33.015192,23.15028 C30.875832,23.15028 29.135352,24.89028 29.135352,27.02988 L29.135352,58.1706 C29.135352,60.31044 30.875832,62.04972 33.015192,62.04972 L86.851992,62.04972 C88.991112,62.04972 90.731592,60.31044 90.731592,58.1706 L90.731592,27.02988 C90.731592,24.89028 88.991112,23.15028 86.851992,23.15028" id="Fill-16" fill="#FFFFFF"></path><mask id="mask-4" fill="white"><use xlink:href="#path-3"></use></mask><g id="Clip-19"></g><polygon id="Fill-18" fill="#475059" mask="url(#mask-4)" points="29.13552 39.07104 90.73176 39.07104 90.73176 29.21616 29.13552 29.21616"></polygon><polygon id="Fill-20" fill="#7FD397" mask="url(#mask-4)" points="31.62072 46.5264 74.47584 46.5264 74.47584 42.60096 31.62072 42.60096"></polygon><polygon id="Fill-21" fill="#7FD397" mask="url(#mask-4)" points="76.24104 46.52616 88.34208 46.52616 88.34208 42.60072 76.24104 42.60072"></polygon><polygon id="Fill-22" fill="#7FD397" mask="url(#mask-4)" points="31.62072 55.03536 44.47824 55.03536 44.47824 53.0808 31.62072 53.0808"></polygon><polygon id="Fill-23" fill="#7FD397" mask="url(#mask-4)" points="31.62072 57.55656 44.47824 57.55656 44.47824 55.60128 31.62072 55.60128"></polygon><path d="M76.57488,69.51456 L24.69528,38.4348 C23.72664,37.84464 20.09016,39.20304 22.62192,42.1524 C26.12952,44.9892 61.26816,71.37408 61.26816,71.37408 C61.26816,71.37408 64.74336,74.71896 67.64112,72.58824 C70.5384,70.4568 75.1716,74.16 75.1716,74.16 L76.57488,69.51456 Z" id="Fill-24" fill="#C1C1C1" mask="url(#mask-4)"></path><path d="M77.29488,68.79456 L25.41528,37.7148 C24.44664,37.12464 20.81016,38.48304 23.34192,41.4324 C26.84952,44.2692 61.98816,70.65408 61.98816,70.65408 C61.98816,70.65408 65.46336,73.99896 68.36112,71.86824 C71.2584,69.7368 75.5184,73.76496 75.5184,73.76496 L77.29488,68.79456 Z" id="Fill-25" fill="#C1C1C1" mask="url(#mask-4)"></path><path d="M77.05488,69.27456 L25.17528,38.1948 C24.20664,37.60464 20.57016,38.96304 23.10192,41.9124 C26.60952,44.7492 61.74816,71.13408 61.74816,71.13408 C61.74816,71.13408 65.22336,74.47896 68.12112,72.34824 C71.0184,70.2168 75.2784,74.24496 75.2784,74.24496 L77.05488,69.27456 Z" id="Fill-26" fill="#D9D9D9" mask="url(#mask-4)"></path><path d="M63.086832,63.883128 C63.743952,64.887768 63.462192,66.237288 62.456832,66.895368 C61.451952,67.552008 60.104592,67.269528 59.446272,66.264168 C58.788912,65.259528 59.069232,63.911688 60.075072,63.254088 C61.081392,62.596728 62.428752,62.878008 63.086832,63.883128" id="Fill-27" fill="#F7F7F7" mask="url(#mask-4)"></path><path d="M96.843168,69.838368 C100.260768,71.889408 101.449968,76.188048 99.499968,79.439568 C97.549248,82.693008 93.195648,83.667648 89.777328,81.618288 C86.359728,79.567728 85.170048,75.268368 87.121248,72.015648 C89.072448,68.763168 93.424608,67.788768 96.843168,69.838368 M74.691408,73.931568 L90.448128,85.057248 L94.060128,86.977968 L96.346128,87.685968 C96.346128,87.685968 97.312608,88.117968 99.078528,85.822848 C100.844688,83.527488 105.728928,77.520048 101.514288,71.310288 C97.300128,65.101008 90.909168,65.787168 87.990048,66.784848 C85.072128,67.781808 79.929168,68.555808 77.076048,68.454048 C76.564128,68.435808 74.691408,73.931568 74.691408,73.931568" id="Fill-28" fill="#8B4DFE" mask="url(#mask-4)"></path><path d="M49.717152,52.897392 L25.175472,38.194752 C24.206592,37.604592 20.570352,38.962992 23.102112,41.912352 C26.609472,44.749152 61.748112,71.134032 61.748112,71.134032 C61.748112,71.134032 64.743072,74.016192 67.491552,72.724512 L49.717152,52.897392 Z" id="Fill-29" fill="#D9D9D9" mask="url(#mask-4)"></path><path d="M62.332632,66.96984 C61.343592,67.52736 60.077832,67.22928 59.446392,66.26424 C58.941192,65.49192 58.990872,64.51584 59.497272,63.80664 L62.332632,66.96984 Z" id="Fill-30" fill="#F7F7F7" mask="url(#mask-4)"></path></g></g></g></svg> 